<?xml version="1.0" standalone="no"?>
<!DOCTYPE svg PUBLIC "-//W3C//DTD SVG 20010904//EN"
 "http://www.w3.org/TR/2001/REC-SVG-20010904/DTD/svg10.dtd">
<svg version="1.0" xmlns="http://www.w3.org/2000/svg"
 width="952.000000pt" height="653.000000pt" viewBox="0 0 952.000000 653.000000"
 preserveAspectRatio="xMidYMid meet">
<metadata>
Created by potrace 1.16, written by Peter Selinger 2001-2019
</metadata>
<g transform="translate(0.000000,653.000000) scale(0.100000,-0.100000)"
fill="#000000" stroke="none">
<path d="M4930 5073 c-14 -2 -41 -9 -60 -16 -19 -6 -41 -10 -47 -9 -7 2 -13
-1 -13 -6 0 -5 -22 -12 -49 -15 -46 -5 -68 -14 -158 -61 -33 -17 -43 -28 -22
-23 6 1 14 -4 16 -10 3 -7 -2 -13 -10 -13 -8 0 -18 -8 -21 -17 -6 -15 -8 -15
-16 -3 -9 15 -11 13 -14 -12 0 -6 -9 -12 -19 -14 -30 -4 -95 -77 -99 -110 -2
-16 -8 -29 -15 -29 -7 0 -18 -6 -25 -13 -11 -11 -10 -12 4 -7 13 5 17 2 15
-13 0 -12 -5 -20 -11 -19 -5 1 -14 -13 -19 -30 -5 -18 -18 -35 -28 -38 -19 -6
-26 -30 -11 -37 38 -16 83 -186 86 -323 1 -58 0 -60 -24 -58 -19 2 -32 -7 -52
-37 -28 -40 -58 -53 -58 -25 0 8 -9 15 -20 15 -29 0 -35 25 -15 66 20 43 16
50 -26 35 -18 -6 -44 -11 -58 -11 -15 0 -32 -5 -39 -12 -13 -13 -30 3 -56 57
-8 17 -26 45 -40 64 -49 66 -20 92 48 42 37 -26 46 -29 56 -16 16 19 6 32 -30
40 -16 4 -32 11 -35 16 -4 5 -25 9 -48 9 -71 0 -86 8 -92 49 -12 72 -19 78
-39 32 -15 -33 -17 -46 -8 -65 12 -27 7 -36 -21 -36 -10 0 -21 -9 -24 -20 -4
-13 -17 -22 -42 -26 -700 -121 -1124 -246 -1536 -453 -737 -371 -1123 -926
-1279 -1841 -30 -174 -61 -447 -76 -660 -26 -376 -42 -1420 -22 -1420 5 0 12
249 15 552 9 807 38 1212 118 1618 248 1266 988 1867 2667 2164 72 13 132 21
132 18 0 -4 -52 -184 -55 -189 0 -1 -59 -20 -130 -42 -130 -40 -264 -88 -384
-138 l-64 -27 113 -17 c108 -16 129 -26 130 -56 0 -16 17 -17 22 -1 3 7 10 8
17 4 11 -7 11 -10 0 -17 -12 -7 -11 -9 1 -10 8 0 2 -6 -14 -13 -22 -10 -25
-14 -12 -19 9 -4 16 -2 16 3 0 6 9 10 21 10 21 0 21 0 -2 -24 -13 -13 -30 -22
-38 -19 -14 4 -14 3 -2 -5 10 -7 21 -7 33 -1 13 7 18 6 18 -3 0 -8 5 -6 11 5
6 10 22 17 40 17 16 0 47 9 69 20 22 11 45 20 51 20 7 0 66 -27 131 -60 123
-62 246 -141 358 -231 36 -29 60 -46 54 -38 -6 8 -14 35 -16 61 -5 46 -5 48
28 58 19 6 38 9 44 5 14 -9 12 14 -3 29 -19 20 -54 36 -76 36 -11 0 -31 11
-44 24 -13 12 -29 25 -35 27 -7 2 -15 28 -19 58 -4 40 -3 52 5 47 22 -13 12 5
-15 28 -18 16 -27 35 -29 59 -2 20 -8 45 -14 56 -5 11 -7 26 -4 35 8 20 105
40 158 32 22 -4 107 -9 189 -12 165 -7 156 -2 206 -101 25 -50 36 -52 116 -24
54 19 55 19 55 1 0 -22 -35 -46 -45 -31 -8 14 -40 5 -74 -20 -33 -25 -40 -34
-17 -26 10 4 13 1 10 -7 -3 -8 0 -17 7 -22 8 -4 10 -3 5 4 -4 7 -3 12 2 12 6
0 12 -6 15 -13 3 -8 -5 -13 -23 -13 -22 -1 -27 2 -22 15 5 13 3 13 -12 -2 -29
-29 -23 -91 15 -147 27 -40 58 -67 155 -135 13 -9 30 -58 54 -155 5 -19 10
-60 11 -90 l3 -55 -181 -20 c-100 -11 -184 -23 -188 -26 -3 -4 8 -29 24 -56
89 -144 165 -345 203 -535 40 -201 25 -649 -23 -679 -6 -3 -20 -4 -30 -2 -24
7 -49 -13 -49 -38 0 -15 7 -19 34 -19 l34 0 -12 -47 c-10 -41 -16 -48 -39 -51
-22 -3 -27 1 -27 20 0 13 -4 30 -10 38 -5 8 -5 19 -1 25 15 18 8 50 -13 65
-39 28 -47 29 -606 80 -52 5 -96 9 -97 10 -2 0 -3 53 -3 118 l0 118 -47 -1
c-47 -1 -48 -2 -53 -35 -3 -19 -5 -63 -4 -98 1 -41 -2 -62 -9 -59 -15 5 -17
60 -3 69 8 6 8 8 0 8 -7 0 -10 20 -10 50 1 31 -3 55 -11 62 -11 8 -13 -10 -13
-96 0 -98 -2 -107 -17 -102 -10 2 -54 10 -98 16 -44 6 -91 16 -104 21 -13 5
-55 12 -95 14 -39 3 -82 8 -94 11 -13 2 -31 -1 -39 -8 -15 -13 -53 -22 -53
-13 0 3 12 23 26 45 15 22 24 43 21 46 -11 11 -35 -4 -53 -33 -10 -15 -59 -91
-109 -168 -51 -77 -112 -170 -136 -208 -40 -62 -44 -65 -54 -46 -13 23 -27 13
-40 -30 -6 -20 -4 -23 9 -18 22 9 20 -5 -4 -36 -11 -14 -16 -28 -11 -31 15
-10 38 4 50 30 8 19 16 24 31 19 18 -6 20 -3 14 19 -4 18 0 33 15 52 12 15 21
23 22 18 0 -5 6 5 12 21 16 40 108 187 114 181 3 -2 -1 -14 -7 -26 -6 -12 -10
-23 -8 -24 5 -4 170 -34 268 -48 88 -13 217 -13 330 2 36 4 69 4 74 -1 16 -15
-47 -31 -95 -25 -76 10 -65 -7 13 -21 126 -22 299 -48 396 -60 49 -5 54 -4 59
16 7 29 25 26 50 -7 22 -30 31 -32 301 -64 57 -7 102 -17 102 -23 0 -5 -11
-34 -25 -63 -19 -41 -29 -52 -42 -48 -28 8 -100 23 -193 40 -262 47 -315 57
-415 77 -60 12 -141 27 -180 34 -38 8 -108 21 -155 30 -47 9 -107 20 -135 25
-27 5 -88 16 -135 24 -117 22 -249 40 -254 35 -10 -10 -15 -81 -7 -102 15 -38
-9 -90 -69 -151 -44 -45 -88 -113 -78 -121 2 -2 111 -39 243 -84 275 -94 408
-141 415 -148 10 -10 -68 9 -153 38 -67 23 -91 27 -105 19 -14 -9 -13 -10 8
-5 l25 6 -25 -20 c-14 -11 -19 -21 -12 -21 6 0 12 -4 12 -10 0 -5 -7 -7 -15
-4 -11 4 -15 -1 -16 -17 -1 -28 -6 -59 -11 -64 -2 -2 -95 34 -208 79 l-205 82
3 36 c4 48 -12 55 -39 17 -45 -63 -116 -67 -165 -10 -47 55 -36 137 25 182 37
27 27 44 -17 28 -20 -7 -32 -18 -32 -29 0 -11 -4 -21 -9 -24 -4 -3 -11 -29
-14 -57 -4 -28 -13 -59 -21 -68 -7 -9 -24 -41 -36 -71 -12 -30 -25 -62 -28
-71 -6 -13 -31 -4 -148 56 l-141 71 29 34 c34 40 68 102 68 124 0 8 23 37 50
65 53 52 140 159 140 172 0 4 -5 9 -11 11 -8 3 -11 47 -10 135 1 79 -2 134 -8
138 -7 4 -11 -36 -13 -112 l-3 -118 -24 60 c-39 97 -110 196 -168 234 -49 33
-51 35 -41 65 6 17 19 38 29 48 11 9 19 23 19 32 0 8 4 18 10 21 6 3 10 15 10
26 0 11 -4 17 -10 14 -5 -3 -10 -5 -10 -3 0 2 -9 28 -21 58 -14 38 -18 45 -15
22 7 -42 -7 -34 -34 18 -22 43 -24 41 50 55 19 3 59 16 88 27 48 19 52 23 52
54 0 39 -5 41 -34 17 -20 -17 -20 -17 -7 0 11 14 12 20 2 30 -10 9 -17 6 -35
-15 -25 -32 -46 -37 -44 -10 3 34 -2 53 -12 47 -5 -3 -10 -15 -10 -26 0 -28
-22 -23 -55 11 -16 17 -35 30 -42 30 -7 0 -13 9 -13 20 0 33 77 69 175 83 l86
12 -5 50 c-7 73 -17 116 -33 149 -18 34 -72 86 -90 86 -8 0 -46 17 -86 37 -68
35 -78 37 -167 38 -81 0 -103 -4 -148 -25 -33 -16 -50 -30 -47 -38 3 -7 1 -11
-4 -8 -5 3 -14 0 -20 -8 -7 -8 -20 -12 -31 -9 -20 5 -72 -39 -103 -88 -26 -39
-45 -114 -53 -199 -5 -65 -3 -82 11 -104 17 -25 34 -55 66 -113 10 -19 9 -26
-4 -41 -18 -20 -25 -69 -13 -92 4 -8 0 -5 -9 7 l-16 21 -35 -37 c-45 -51 -52
-87 -24 -140 24 -48 23 -80 -3 -99 -9 -7 -15 -18 -12 -23 4 -5 -1 -12 -10 -15
-9 -4 -23 -20 -31 -36 -8 -16 -20 -26 -26 -22 -7 5 -8 3 -4 -5 5 -7 0 -21 -11
-33 -18 -21 -18 -21 14 -15 25 5 31 3 27 -8 -3 -7 -12 -11 -20 -8 -8 3 -14 0
-14 -6 0 -6 -7 -11 -16 -11 -9 0 -12 5 -8 13 6 9 5 9 -8 0 -8 -7 -18 -10 -21
-7 -3 3 1 -23 9 -57 28 -122 99 -298 164 -410 l42 -71 -12 -201 c-6 -111 -14
-430 -17 -709 l-6 -508 3941 0 3942 0 0 2239 0 2239 -62 6 c-150 14 -705 40
-1315 60 -62 2 -113 -1 -113 -5 0 -5 24 -10 53 -11 l52 -2 -47 -3 -47 -4 25
-67 c56 -143 104 -303 128 -423 102 -510 26 -1045 -212 -1502 -60 -115 -179
-298 -198 -304 -7 -2 -16 21 -23 57 -7 33 -19 76 -26 95 -8 19 -15 50 -15 70
0 20 -10 51 -24 73 -13 20 -27 60 -31 89 -6 46 -3 61 34 145 43 97 50 148 30
206 -10 30 -11 30 -67 25 -43 -4 -77 1 -142 20 -47 14 -126 31 -177 37 -122
14 -210 42 -252 80 -33 30 -34 33 -29 94 5 51 13 75 48 132 24 38 57 83 73
101 l30 32 -74 36 c-41 19 -121 46 -179 61 -58 14 -121 29 -140 34 -35 9 -193
32 -240 35 -14 1 -60 20 -103 43 -43 23 -90 42 -103 42 -14 0 -44 10 -66 21
-23 12 -66 30 -95 40 -29 10 -72 31 -95 47 -89 61 -104 65 -205 59 l-93 -5
-16 30 c-35 69 -45 123 -34 195 9 54 8 81 -4 128 -16 66 -19 60 -25 -55 -2
-36 -71 -140 -94 -140 -14 0 -16 4 -7 19 5 11 10 31 10 44 0 14 6 40 14 58 7
19 17 49 21 67 5 26 3 32 -10 32 -9 0 -23 7 -31 15 -14 13 -14 15 0 15 26 0
18 25 -9 28 -25 2 -42 -12 -26 -23 6 -3 8 -12 5 -20 -3 -8 4 -20 15 -27 24
-15 27 -28 7 -28 -13 0 -13 -4 -1 -27 8 -15 11 -39 8 -57 -7 -39 -10 -41 -26
-28 -10 9 -23 7 -52 -8 -53 -27 -69 -26 -60 3 4 12 9 34 12 49 3 15 9 25 14
22 5 -3 9 5 9 18 0 13 -8 28 -19 35 -21 13 -81 7 -96 -10 -5 -7 -19 -13 -30
-15 -18 -2 -17 0 5 19 14 12 24 25 23 30 -2 4 8 16 21 26 12 10 23 27 23 37 0
17 -1 17 -12 2 -7 -9 -26 -19 -43 -22 -18 -4 -37 -13 -43 -20 -6 -8 -17 -14
-23 -14 -6 0 -30 -18 -54 -40 -24 -22 -46 -40 -50 -40 -8 0 -33 -36 -45 -64
-5 -13 -3 -17 6 -13 22 8 16 -26 -7 -45 -27 -22 -81 -32 -104 -19 -9 6 -11 11
-4 11 6 0 12 4 12 9 0 4 -20 7 -45 6 -25 -1 -48 2 -51 7 -3 4 1 5 9 2 8 -3 18
0 22 7 10 15 -83 3 -103 -13 -9 -8 -11 -7 -6 6 3 9 1 16 -5 16 -6 0 -10 -3
-10 -7 4 -24 -3 -34 -23 -32 -13 1 -30 -1 -38 -4 -8 -3 -27 -7 -42 -10 -22 -3
-28 0 -28 14 0 9 6 20 13 22 9 4 9 6 0 6 -14 1 -6 31 9 31 5 0 23 9 39 21 16
11 33 17 39 14 18 -11 48 5 54 29 4 15 16 26 33 31 16 3 36 14 46 22 9 9 17
13 17 10 0 -3 12 5 26 18 14 13 36 27 48 30 25 7 34 11 161 68 117 53 237 92
256 85 8 -3 25 -26 37 -52 22 -42 42 -60 42 -36 0 6 7 10 15 10 8 0 15 6 15
14 0 12 28 26 56 26 6 0 19 -26 29 -57 13 -38 20 -51 23 -37 1 11 -6 42 -18
68 -21 50 -27 82 -10 56 5 -8 10 -10 10 -5 0 6 -15 26 -33 46 -19 21 -39 58
-47 85 -7 27 -23 69 -35 94 -12 25 -30 68 -39 95 -27 78 -93 164 -151 196 -75
43 -115 59 -170 71 -27 6 -59 16 -70 24 -11 7 -51 15 -90 19 -38 3 -83 7 -100
9 -16 2 -41 1 -55 -1z m824 -1151 c2 -4 7 -26 10 -47 3 -22 8 -52 12 -66 5
-24 -21 -207 -31 -218 -13 -12 -60 49 -86 112 -11 26 -39 38 -39 16 0 -6 -7
-9 -14 -6 -17 7 -76 -20 -76 -33 0 -5 6 -11 13 -13 6 -3 2 -6 -10 -6 -12 -1
-23 4 -25 10 -3 8 -16 10 -41 5 -21 -4 -35 -11 -32 -16 3 -5 12 -7 19 -4 8 3
17 -3 20 -13 4 -10 23 -30 44 -44 45 -31 75 -43 70 -28 -2 6 -7 10 -12 9 -10
-2 -66 50 -66 62 0 4 18 7 40 6 21 -1 37 -5 34 -10 -3 -4 3 -9 13 -9 32 -2 38
-4 81 -23 47 -21 49 -28 24 -82 -51 -112 -113 -173 -179 -176 -40 -1 -123 29
-123 45 0 4 -4 6 -9 2 -5 -3 -19 8 -31 25 -18 26 -19 30 -5 30 9 0 14 -4 10
-9 -3 -5 -1 -12 5 -16 5 -3 10 -1 10 4 0 22 30 10 75 -29 25 -22 48 -40 49
-40 2 0 2 24 0 53 -2 28 -1 43 3 32 5 -17 7 -16 18 10 9 20 14 24 14 13 1 -10
6 -18 11 -18 14 0 12 23 -2 39 -11 11 -10 13 4 8 25 -9 33 12 14 31 -14 14
-18 14 -25 4 -7 -11 -9 -11 -14 2 -4 10 -1 16 9 16 12 0 12 2 2 14 -11 11 -16
9 -30 -14 -9 -16 -25 -33 -35 -39 -12 -7 -14 -13 -7 -18 6 -5 10 -26 9 -48 -4
-53 -3 -53 -20 -31 -17 22 -20 40 -6 32 15 -10 20 19 7 42 l-12 23 -30 -26
c-16 -14 -31 -20 -32 -15 -2 6 -9 8 -15 4 -7 -3 1 6 17 20 17 14 33 23 38 20
4 -3 8 -1 8 5 0 5 -10 11 -22 13 -19 2 -23 9 -23 41 0 20 -2 37 -4 37 -13 0
-51 -49 -51 -67 0 -12 -5 -25 -11 -29 -8 -4 -9 4 -4 27 13 65 28 109 37 109 5
0 6 -5 2 -12 -5 -7 -3 -8 6 -3 10 6 10 10 -2 19 -8 6 -17 18 -21 26 -3 8 -6 0
-6 -18 -1 -36 -20 -35 -22 1 -1 19 -2 20 -6 3 -3 -10 -14 -28 -24 -39 -10 -12
-19 -26 -19 -31 0 -6 -13 -18 -28 -27 -24 -14 -32 -14 -70 -1 -37 12 -41 16
-30 30 8 10 9 13 1 9 -9 -5 -9 1 0 25 14 39 37 67 37 46 0 -7 7 0 15 16 8 15
15 36 15 46 0 23 26 46 32 28 3 -8 7 -6 11 6 4 10 3 15 -3 11 -6 -3 -10 -2
-10 4 0 24 85 60 155 65 70 5 268 46 315 65 31 12 47 13 54 3z m-110 -1233
c40 -35 160 -238 206 -350 17 -40 38 -92 48 -114 9 -22 26 -51 39 -65 13 -14
23 -30 23 -37 0 -7 7 -13 16 -13 19 0 49 -69 36 -82 -6 -6 -20 0 -38 15 -16
14 -46 32 -67 41 -24 9 -36 20 -31 27 3 6 2 14 -4 18 -11 7 -82 154 -82 171 0
5 -8 10 -17 11 -11 0 -13 3 -5 6 6 2 12 9 12 14 0 4 -6 6 -14 3 -10 -4 -16 5
-21 27 -8 37 -86 188 -120 234 -77 102 -63 167 19 94z m-461 -250 c53 -27 142
-86 177 -119 14 -14 36 -33 48 -42 29 -24 28 -34 -5 -33 -16 0 -31 -4 -35 -10
-4 -5 -8 3 -8 18 0 16 -4 26 -8 23 -5 -3 -28 4 -51 16 -29 14 -40 25 -36 35 3
10 1 13 -9 10 -7 -3 -18 -1 -22 3 -5 5 -25 10 -44 12 -21 1 -46 12 -63 28 -15
14 -31 25 -35 25 -5 0 -17 8 -27 18 -15 16 -16 20 -4 28 24 15 78 10 122 -12z
m1327 -170 c111 -24 191 -54 212 -79 17 -21 82 -28 93 -10 21 35 299 -24 359
-75 34 -29 53 -31 85 -9 20 14 35 15 134 5 63 -7 122 -19 135 -27 12 -8 26
-12 31 -10 13 8 71 -14 71 -27 0 -22 -218 -219 -333 -301 -55 -39 -69 -45 -86
-36 -44 23 -44 79 -1 125 11 12 20 34 20 49 0 15 6 40 14 55 13 23 13 34 1 66
-7 22 -18 41 -23 43 -15 5 -54 -17 -47 -27 8 -14 -46 -43 -71 -38 -16 3 -24 0
-24 -9 0 -8 -5 -14 -11 -14 -6 0 -9 7 -5 15 8 22 -7 18 -22 -6 -8 -12 -9 -18
-3 -14 6 3 11 1 11 -4 0 -12 -17 -15 -71 -12 -41 3 -57 -12 -62 -55 -5 -42
-14 -54 -43 -54 -28 0 -28 -1 -9 37 13 27 13 35 0 73 -8 23 -15 49 -15 57 0 9
-13 30 -29 49 -16 18 -34 40 -39 50 -9 16 -13 15 -55 -5 l-46 -23 21 -28 c22
-30 22 -32 -9 -138 -27 -90 -25 -89 -168 -57 -33 7 -93 19 -133 26 -53 9 -77
18 -88 33 -20 29 -18 45 12 87 30 44 49 116 35 133 -13 16 -25 109 -17 139 7
28 43 48 71 41 11 -4 58 -14 105 -25z m586 -367 c2 -18 11 -46 19 -62 20 -38
19 -69 -2 -92 -17 -19 -68 -25 -78 -9 -3 5 -28 17 -55 26 -45 15 -50 20 -50
46 0 40 43 84 73 74 50 -16 62 -12 65 23 4 42 24 37 28 -6z m-758 -113 c56
-19 60 -55 27 -224 -8 -38 -17 -87 -20 -109 -12 -76 -93 -114 -136 -64 -23 26
-23 16 1 151 28 159 46 219 71 240 25 20 19 19 57 6z m-3281 -583 c120 -51
270 -115 333 -140 177 -73 455 -189 459 -193 2 -2 2 -5 -1 -8 -3 -3 -30 5 -59
19 -30 13 -94 41 -144 61 -49 20 -162 67 -250 105 -294 124 -387 161 -393 156
-4 -5 -4 -68 0 -114 1 -7 12 -15 25 -18 16 -5 23 -14 24 -33 0 -23 1 -24 9 -6
8 18 9 17 9 -8 1 -19 5 -26 13 -21 8 5 9 -3 5 -31 -5 -31 -4 -35 6 -21 11 15
13 14 15 -8 1 -14 -3 -26 -8 -26 -22 0 -8 -17 34 -40 25 -13 42 -28 39 -33 -3
-6 -1 -7 5 -3 14 8 55 -12 47 -23 -3 -5 2 -12 11 -15 8 -3 12 -2 9 4 -11 17 1
11 29 -15 15 -14 32 -23 37 -20 5 4 9 1 9 -6 0 -7 3 -10 6 -6 3 3 29 -8 57
-26 98 -60 27 -37 -122 39 -133 68 -152 75 -168 63 -15 -12 -16 -12 -10 3 3
10 2 20 -3 23 -6 4 -10 -5 -10 -19 0 -13 6 -27 13 -29 9 -4 8 -8 -3 -16 -10
-7 -11 -11 -2 -11 6 0 12 -6 12 -14 0 -8 6 -17 13 -19 6 -3 1 -6 -13 -6 -24
-1 -23 -2 13 -39 20 -21 37 -42 37 -46 0 -11 -244 0 -325 14 -118 21 -105 -6
-107 213 l-3 192 -2 -193 c-3 -187 -4 -193 -23 -188 -11 3 -28 8 -38 11 -16 5
-20 20 -25 112 -4 58 -7 152 -7 208 l0 102 38 11 c21 6 47 21 59 32 12 11 31
20 42 20 13 0 27 12 36 30 9 17 20 30 25 30 5 0 12 9 15 20 3 11 8 20 10 20 2
0 102 -42 222 -94z"/>
<path d="M2740 1026 c0 -8 8 -21 18 -28 13 -9 21 -31 25 -70 4 -31 10 -63 13
-72 10 -26 34 -18 46 14 11 33 29 34 73 4 21 -15 46 -19 44 -6 -1 4 -1 9 1 12
16 42 10 47 -98 101 -59 29 -110 54 -114 56 -5 2 -8 -3 -8 -11z"/>
<path d="M7685 5071 c6 -6 111 -15 260 -21 504 -21 928 -46 1328 -81 213 -18
261 -19 246 -5 -15 15 -1024 84 -1484 101 -82 3 -197 8 -255 11 -74 4 -102 3
-95 -5z"/>
<path d="M4065 5023 c-16 -1 -104 -10 -195 -19 -1331 -125 -2233 -409 -2775
-876 -525 -452 -770 -1083 -845 -2168 -28 -413 -39 -1224 -20 -1530 12 -194
37 -397 51 -419 7 -11 9 -1 4 34 -3 28 -13 113 -23 190 -14 118 -17 237 -16
750 0 603 8 840 40 1185 120 1309 570 1985 1594 2395 529 212 1278 363 2160
436 80 6 149 16 155 20 9 9 -67 10 -130 2z"/>
<path d="M7230 4955 c-6 -8 -9 -19 -6 -24 8 -13 -11 -24 -25 -15 -8 4 -7 9 2
15 9 6 10 9 2 9 -12 0 -53 -60 -53 -78 0 -5 12 -12 28 -15 15 -3 37 -8 50 -12
18 -6 22 -4 22 13 0 25 27 49 41 35 5 -5 11 -23 12 -39 2 -27 5 -29 37 -26 32
3 80 39 80 61 0 4 -17 13 -39 19 -21 7 -44 18 -50 26 -7 8 -21 12 -32 9 -15
-4 -22 0 -26 16 -6 24 -25 27 -43 6z"/>
<path d="M4059 4833 l-71 -108 53 -17 c30 -9 62 -17 72 -17 10 -1 41 -19 70
-40 58 -44 103 -65 112 -51 11 18 -58 201 -102 270 -25 38 -49 70 -54 70 -5 0
-41 -48 -80 -107z"/>
</g>
</svg>
