<svg width="930" height="510" viewBox="0 0 930 510" fill="none" xmlns="http://www.w3.org/2000/svg">
<path d="M1454 398.106C1454 476.57 1446.87 525.746 1427.45 555.54C1408.13 585.188 1376.49 595.841 1326.66 596.714C1287.82 597.394 1238.15 592.132 1175.03 585.445C1157.13 583.548 1138.15 581.537 1118.02 579.514C1026.98 570.363 912.685 560.992 769.782 560.992C626.869 560.992 507.285 572.541 408.307 584.958C375.033 589.133 344.102 593.403 315.402 597.365C258.693 605.194 210.694 611.821 170.547 614.128C110.059 617.606 67.8106 611.238 40.6187 584.754C13.4108 558.255 1 511.347 1 432.932C1 354.481 2.75152 288.299 14.2793 233.118C25.8006 177.968 47.074 133.876 86.0793 99.5517C125.105 65.2095 181.98 40.5593 264.87 24.503C347.759 8.44701 456.577 1 599.41 1C885.124 1 1098.84 22.0905 1241.1 82.3087C1312.21 112.407 1365.41 152.26 1400.85 204.093C1436.28 255.923 1454 319.817 1454 398.106Z" stroke="url(#paint0_linear_3_71)" stroke-width="2"/>
<defs>
<linearGradient id="paint0_linear_3_71" x1="727.5" y1="0" x2="727.5" y2="616" gradientUnits="userSpaceOnUse">
<stop stop-color="#161616"/>
<stop offset="1" stop-color="#BE1522"/>
</linearGradient>
</defs>
</svg>
