<svg width="217" height="88" viewBox="0 0 217 88" fill="none" xmlns="http://www.w3.org/2000/svg">
<path d="M8.92614 46H2.17614L14.4659 11.0909H22.2727L34.5795 46H27.8295L18.5057 18.25H18.233L8.92614 46ZM9.14773 32.3125H27.5568V37.392H9.14773V32.3125ZM39.1776 46V11.0909H45.348V24.1477H45.6037C45.9219 23.5114 46.3707 22.8352 46.9503 22.1193C47.5298 21.392 48.3139 20.7727 49.3026 20.2614C50.2912 19.7386 51.5526 19.4773 53.0866 19.4773C55.1094 19.4773 56.9332 19.9943 58.5582 21.0284C60.1946 22.0511 61.4901 23.5682 62.4446 25.5795C63.4105 27.5795 63.8935 30.0341 63.8935 32.9432C63.8935 35.8182 63.4219 38.2614 62.4787 40.2727C61.5355 42.2841 60.2514 43.8182 58.6264 44.875C57.0014 45.9318 55.1605 46.4602 53.1037 46.4602C51.6037 46.4602 50.3594 46.2102 49.3707 45.7102C48.3821 45.2102 47.5866 44.608 46.9844 43.9034C46.3935 43.1875 45.9332 42.5114 45.6037 41.875H45.2457V46H39.1776ZM45.2287 32.9091C45.2287 34.6023 45.4673 36.0852 45.9446 37.358C46.4332 38.6307 47.1321 39.625 48.0412 40.3409C48.9616 41.0455 50.0753 41.3977 51.3821 41.3977C52.7457 41.3977 53.8878 41.0341 54.8082 40.3068C55.7287 39.5682 56.4219 38.5625 56.8878 37.2898C57.3651 36.0057 57.6037 34.5455 57.6037 32.9091C57.6037 31.2841 57.3707 29.8409 56.9048 28.5795C56.4389 27.3182 55.7457 26.3295 54.8253 25.6136C53.9048 24.8977 52.7571 24.5398 51.3821 24.5398C50.0639 24.5398 48.9446 24.8864 48.0241 25.5795C47.1037 26.2727 46.4048 27.2443 45.9276 28.4943C45.4616 29.7443 45.2287 31.2159 45.2287 32.9091ZM80.5597 46.5114C78.0028 46.5114 75.7869 45.9489 73.9119 44.8239C72.0369 43.6989 70.5824 42.125 69.5483 40.1023C68.5256 38.0795 68.0142 35.7159 68.0142 33.0114C68.0142 30.3068 68.5256 27.9375 69.5483 25.9034C70.5824 23.8693 72.0369 22.2898 73.9119 21.1648C75.7869 20.0398 78.0028 19.4773 80.5597 19.4773C83.1165 19.4773 85.3324 20.0398 87.2074 21.1648C89.0824 22.2898 90.5313 23.8693 91.554 25.9034C92.5881 27.9375 93.1051 30.3068 93.1051 33.0114C93.1051 35.7159 92.5881 38.0795 91.554 40.1023C90.5313 42.125 89.0824 43.6989 87.2074 44.8239C85.3324 45.9489 83.1165 46.5114 80.5597 46.5114ZM80.5938 41.5682C81.9801 41.5682 83.1392 41.1875 84.071 40.4261C85.0028 39.6534 85.696 38.6193 86.1506 37.3239C86.6165 36.0284 86.8494 34.5852 86.8494 32.9943C86.8494 31.392 86.6165 29.9432 86.1506 28.6477C85.696 27.3409 85.0028 26.3011 84.071 25.5284C83.1392 24.7557 81.9801 24.3693 80.5938 24.3693C79.1733 24.3693 77.9915 24.7557 77.0483 25.5284C76.1165 26.3011 75.4176 27.3409 74.9517 28.6477C74.4972 29.9432 74.2699 31.392 74.2699 32.9943C74.2699 34.5852 74.4972 36.0284 74.9517 37.3239C75.4176 38.6193 76.1165 39.6534 77.0483 40.4261C77.9915 41.1875 79.1733 41.5682 80.5938 41.5682ZM115.03 34.9886V19.8182H121.2V46H115.217V41.3466H114.945C114.354 42.8125 113.382 44.0114 112.03 44.9432C110.689 45.875 109.036 46.3409 107.07 46.3409C105.354 46.3409 103.837 45.9602 102.518 45.1989C101.212 44.4261 100.189 43.3068 99.4503 41.8409C98.7116 40.3636 98.3423 38.5795 98.3423 36.4886V19.8182H104.513V35.5341C104.513 37.1932 104.967 38.5114 105.876 39.4886C106.786 40.4659 107.979 40.9545 109.456 40.9545C110.365 40.9545 111.246 40.733 112.098 40.2898C112.95 39.8466 113.649 39.1875 114.195 38.3125C114.751 37.4261 115.03 36.3182 115.03 34.9886ZM140.619 19.8182V24.5909H125.568V19.8182H140.619ZM129.284 13.5455H135.455V38.125C135.455 38.9545 135.58 39.5909 135.83 40.0341C136.091 40.4659 136.432 40.7614 136.852 40.9205C137.273 41.0795 137.739 41.1591 138.25 41.1591C138.636 41.1591 138.989 41.1307 139.307 41.0739C139.636 41.017 139.886 40.9659 140.057 40.9205L141.097 45.7443C140.767 45.858 140.295 45.983 139.682 46.1193C139.08 46.2557 138.341 46.3352 137.466 46.358C135.92 46.4034 134.528 46.1705 133.29 45.6591C132.051 45.1364 131.068 44.3295 130.341 43.2386C129.625 42.1477 129.273 40.7841 129.284 39.1477V13.5455ZM179.964 11.0909H186.288V33.8977C186.288 36.3977 185.697 38.5966 184.516 40.4943C183.345 42.392 181.697 43.875 179.572 44.9432C177.447 46 174.964 46.5284 172.124 46.5284C169.271 46.5284 166.783 46 164.658 44.9432C162.533 43.875 160.885 42.392 159.714 40.4943C158.544 38.5966 157.959 36.3977 157.959 33.8977V11.0909H164.283V33.3693C164.283 34.8239 164.601 36.1193 165.237 37.2557C165.885 38.392 166.794 39.2841 167.964 39.9318C169.135 40.5682 170.521 40.8864 172.124 40.8864C173.726 40.8864 175.112 40.5682 176.283 39.9318C177.464 39.2841 178.374 38.392 179.01 37.2557C179.646 36.1193 179.964 34.8239 179.964 33.3693V11.0909ZM213.582 26.7386L207.957 27.3523C207.798 26.7841 207.52 26.25 207.122 25.75C206.736 25.25 206.213 24.8466 205.554 24.5398C204.895 24.233 204.088 24.0795 203.134 24.0795C201.849 24.0795 200.77 24.358 199.895 24.9148C199.031 25.4716 198.605 26.1932 198.616 27.0795C198.605 27.8409 198.884 28.4602 199.452 28.9375C200.031 29.4148 200.986 29.8068 202.315 30.1136L206.781 31.0682C209.259 31.6023 211.099 32.4489 212.304 33.608C213.52 34.767 214.134 36.2841 214.145 38.1591C214.134 39.8068 213.651 41.2614 212.696 42.5227C211.753 43.7727 210.44 44.75 208.759 45.4545C207.077 46.1591 205.145 46.5114 202.963 46.5114C199.759 46.5114 197.179 45.8409 195.224 44.5C193.27 43.1477 192.105 41.267 191.73 38.858L197.747 38.2784C198.02 39.4602 198.599 40.3523 199.486 40.9545C200.372 41.5568 201.526 41.858 202.946 41.858C204.412 41.858 205.588 41.5568 206.474 40.9545C207.372 40.3523 207.821 39.608 207.821 38.7216C207.821 37.9716 207.531 37.3523 206.952 36.8636C206.384 36.375 205.497 36 204.293 35.7386L199.827 34.8011C197.315 34.2784 195.457 33.3977 194.253 32.1591C193.048 30.9091 192.452 29.3295 192.463 27.4205C192.452 25.8068 192.889 24.4091 193.776 23.2273C194.673 22.0341 195.918 21.1136 197.509 20.4659C199.111 19.8068 200.957 19.4773 203.048 19.4773C206.116 19.4773 208.531 20.1307 210.293 21.4375C212.065 22.7443 213.162 24.5114 213.582 26.7386Z" fill="white"/>
<path d="M1 81.6569C24.4684 86.4301 46.1352 90.0552 81.1502 76.8263C111.087 65.5158 146.621 97.4638 169.842 80.4636C184.509 69.7252 191.884 95.9657 207 74" stroke="white" stroke-width="4"/>
</svg>
